<svg xmlns="http://www.w3.org/2000/svg" xmlns:xlink="http://www.w3.org/1999/xlink" version="1.1" x="0px" y="0px" viewBox="0 0 100 125" enable-background="new 0 0 100 100" xml:space="preserve"><g><rect x="20.6" y="15.771" width="20.786" height="22.196"/><rect x="47.26" y="15.899" width="39.308" height="1.38"/><rect x="47.26" y="22.752" width="39.308" height="1.38"/><rect x="47.26" y="29.607" width="39.308" height="1.381"/><rect x="47.26" y="36.464" width="39.308" height="1.381"/><rect x="20.6" y="46.788" width="20.786" height="22.195"/><rect x="47.26" y="46.917" width="39.308" height="1.377"/><rect x="47.26" y="53.769" width="39.308" height="1.381"/><rect x="47.26" y="60.622" width="39.308" height="1.384"/><rect x="47.26" y="67.478" width="39.308" height="1.384"/><rect x="20.6" y="77.805" width="20.786" height="22.195"/><rect x="47.26" y="77.931" width="39.308" height="1.38"/><rect x="47.26" y="84.782" width="39.308" height="1.381"/><rect x="47.26" y="91.64" width="39.308" height="1.38"/><rect x="47.26" y="98.495" width="39.308" height="1.38"/><rect x="20.6" width="65.967" height="9.931"/></g><text x="0" y="115" fill="#000000" font-size="5px" font-weight="bold" font-family="'Helvetica Neue', Helvetica, Arial-Unicode, Arial, Sans-serif">Created by Oriol Carbonell</text><text x="0" y="120" fill="#000000" font-size="5px" font-weight="bold" font-family="'Helvetica Neue', Helvetica, Arial-Unicode, Arial, Sans-serif">from the Noun Project</text></svg>