<svg xmlns:dc="http://purl.org/dc/elements/1.1/" xmlns:cc="http://creativecommons.org/ns#" xmlns:rdf="http://www.w3.org/1999/02/22-rdf-syntax-ns#" xmlns:svg="http://www.w3.org/2000/svg" xmlns="http://www.w3.org/2000/svg" xmlns:sodipodi="http://sodipodi.sourceforge.net/DTD/sodipodi-0.dtd" xmlns:inkscape="http://www.inkscape.org/namespaces/inkscape" viewBox="0 0 80.000001 100.00000125" version="1.1" x="0px" y="0px"><g transform="translate(0,-972.36218)"><path style="color:#000000;font-style:normal;font-variant:normal;font-weight:normal;font-stretch:normal;font-size:medium;line-height:normal;font-family:sans-serif;font-variant-ligatures:normal;font-variant-position:normal;font-variant-caps:normal;font-variant-numeric:normal;font-variant-alternates:normal;font-feature-settings:normal;text-indent:0;text-align:start;text-decoration:none;text-decoration-line:none;text-decoration-style:solid;text-decoration-color:#000000;letter-spacing:normal;word-spacing:normal;text-transform:none;writing-mode:lr-tb;direction:ltr;text-orientation:mixed;dominant-baseline:auto;baseline-shift:baseline;text-anchor:start;white-space:normal;shape-padding:0;clip-rule:nonzero;display:inline;overflow:visible;visibility:visible;opacity:1;isolation:auto;mix-blend-mode:normal;color-interpolation:sRGB;color-interpolation-filters:linearRGB;solid-color:#000000;solid-opacity:1;vector-effect:none;fill:#000000;fill-opacity:1;fill-rule:nonzero;stroke:none;stroke-width:4;stroke-linecap:round;stroke-linejoin:round;stroke-miterlimit:4;stroke-dasharray:none;stroke-dashoffset:0;stroke-opacity:1;color-rendering:auto;image-rendering:auto;shape-rendering:auto;text-rendering:auto;enable-background:accumulate" d="M 23.970703 4.0703125 A 2.0002 2.0002 0 0 0 21.970703 6.0703125 L 21.970703 18.341797 L 6 18.341797 A 2.0002 2.0002 0 0 0 4 20.341797 L 4 64.8125 A 2.0002 2.0002 0 0 0 6 66.8125 L 35.519531 66.8125 L 47.681641 75.941406 A 2.0002 2.0002 0 0 0 50.882812 74.341797 L 50.882812 66.8125 L 60 66.8125 A 2.0002 2.0002 0 0 0 62 64.8125 L 62 46 L 74 46 A 2.0002 2.0002 0 0 0 76 44 L 76 17.623047 A 2.0002 2.0002 0 0 0 74 15.623047 L 58 15.623047 L 58 6.0703125 A 2.0002 2.0002 0 0 0 56 4.0703125 L 23.970703 4.0703125 z M 25.970703 8.0703125 L 54 8.0703125 L 54 15.623047 L 41.970703 15.623047 A 2.0002 2.0002 0 0 0 41.574219 15.662109 A 2.0002 2.0002 0 0 0 40.535156 16.230469 A 2.0002 2.0002 0 0 0 40.404297 16.378906 A 2.0002 2.0002 0 0 0 40.404297 16.380859 A 2.0002 2.0002 0 0 0 40.287109 16.541016 A 2.0002 2.0002 0 0 0 40.287109 16.542969 A 2.0002 2.0002 0 0 0 40.1875 16.714844 A 2.0002 2.0002 0 0 0 40.1875 16.716797 A 2.0002 2.0002 0 0 0 40 17.283203 A 2.0002 2.0002 0 0 0 39.976562 17.480469 A 2.0002 2.0002 0 0 0 39.976562 17.482422 A 2.0002 2.0002 0 0 0 39.970703 17.623047 L 39.970703 18.070312 L 39.970703 30.447266 L 38.09375 30.447266 A 2.0002 2.0002 0 0 0 36.892578 30.847656 L 32.564453 34.097656 L 32.564453 32.447266 A 2.0002 2.0002 0 0 0 32.554688 32.248047 A 2.0002 2.0002 0 0 0 30.564453 30.447266 L 25.970703 30.447266 L 25.970703 8.0703125 z M 43.970703 19.623047 L 56 19.623047 L 72 19.623047 L 72 42 L 60 42 L 56.09375 42 A 2.0002 2.0002 0 0 0 54.892578 42.400391 L 50.564453 45.650391 L 50.564453 44 A 2.0002 2.0002 0 0 0 50.554688 43.798828 A 2.0002 2.0002 0 0 0 50.525391 43.603516 A 2.0002 2.0002 0 0 0 50.525391 43.601562 A 2.0002 2.0002 0 0 0 50.474609 43.408203 A 2.0002 2.0002 0 0 0 50.214844 42.869141 A 2.0002 2.0002 0 0 0 50.09375 42.710938 A 2.0002 2.0002 0 0 0 49.957031 42.564453 A 2.0002 2.0002 0 0 0 49.644531 42.316406 A 2.0002 2.0002 0 0 0 49.470703 42.216797 A 2.0002 2.0002 0 0 0 48.564453 42 L 43.970703 42 L 43.970703 32.447266 L 43.970703 19.623047 z M 8 22.341797 L 21.970703 22.341797 L 21.970703 32.447266 A 2.0002 2.0002 0 0 0 23.970703 34.447266 L 28.564453 34.447266 L 28.564453 38.099609 A 2.0002 2.0002 0 0 0 31.765625 39.699219 L 38.761719 34.447266 L 39.970703 34.447266 L 39.970703 44 A 2.0002 2.0002 0 0 0 40.009766 44.396484 A 2.0002 2.0002 0 0 0 40.060547 44.589844 A 2.0002 2.0002 0 0 0 40.060547 44.591797 A 2.0002 2.0002 0 0 0 40.128906 44.777344 A 2.0002 2.0002 0 0 0 40.128906 44.779297 A 2.0002 2.0002 0 0 0 40.320312 45.128906 A 2.0002 2.0002 0 0 0 40.441406 45.287109 A 2.0002 2.0002 0 0 0 40.441406 45.289062 A 2.0002 2.0002 0 0 0 40.578125 45.433594 A 2.0002 2.0002 0 0 0 40.578125 45.435547 A 2.0002 2.0002 0 0 0 41.970703 46 L 46.564453 46 L 46.564453 49.652344 A 2.0002 2.0002 0 0 0 46.603516 50.048828 A 2.0002 2.0002 0 0 0 46.654297 50.242188 A 2.0002 2.0002 0 0 0 46.654297 50.244141 A 2.0002 2.0002 0 0 0 46.722656 50.429688 A 2.0002 2.0002 0 0 0 46.722656 50.431641 A 2.0002 2.0002 0 0 0 46.914062 50.78125 A 2.0002 2.0002 0 0 0 47.035156 50.939453 A 2.0002 2.0002 0 0 0 47.035156 50.941406 A 2.0002 2.0002 0 0 0 47.171875 51.085938 A 2.0002 2.0002 0 0 0 47.171875 51.087891 A 2.0002 2.0002 0 0 0 49.765625 51.251953 L 56.761719 46 L 58 46 L 58 62.8125 L 48.882812 62.8125 A 2.0002 2.0002 0 0 0 46.882812 64.8125 L 46.882812 70.339844 L 37.388672 63.212891 A 2.0002 2.0002 0 0 0 36.1875 62.8125 L 8 62.8125 L 8 22.341797 z M 18 44 A 2.0002 2.0002 0 1 0 18 48 L 34 48 A 2.0002 2.0002 0 1 0 34 44 L 18 44 z M 18 52 A 2.0002 2.0002 0 1 0 18 56 L 38 56 A 2.0002 2.0002 0 1 0 38 52 L 18 52 z " transform="translate(0,972.36218)"/></g><text x="0" y="95.000001" fill="#000000" font-size="5px" font-weight="bold" font-family="'Helvetica Neue', Helvetica, Arial-Unicode, Arial, Sans-serif">Created by Shuaibu Usman Yusuf</text><text x="0" y="100.000001" fill="#000000" font-size="5px" font-weight="bold" font-family="'Helvetica Neue', Helvetica, Arial-Unicode, Arial, Sans-serif">from the Noun Project</text></svg>